<svg version="1.1" id="Layer_1" xmlns="http://www.w3.org/2000/svg" xmlns:xlink="http://www.w3.org/1999/xlink" x="0px" y="0px"
	 width="100%" viewBox="0 0 158 105" enable-background="new 0 0 158 105" xml:space="preserve">
<path fill="#FFFEFC" opacity="1.000000" stroke="none" 
	d="
M101.000000,106.000000 
	C67.333336,106.000000 34.166676,106.000000 1.000009,106.000000 
	C1.000006,71.000008 1.000006,36.000015 1.000003,1.000018 
	C53.666653,1.000012 106.333305,1.000012 158.999969,1.000006 
	C158.999969,35.999981 158.999969,70.999962 158.999985,105.999969 
	C139.833328,106.000000 120.666664,106.000000 101.000000,106.000000 
M65.260109,35.147182 
	C65.260109,35.147182 65.566063,35.156197 66.191597,34.782104 
	C66.914970,31.675711 68.796356,28.404280 65.100510,25.352638 
	C64.329277,19.418957 61.050804,15.618982 55.118065,13.428107 
	C55.015903,13.291969 54.913738,13.155830 54.743385,12.616408 
	C54.544209,12.368447 54.297054,12.303835 53.467686,12.135496 
	C53.266888,12.112041 53.066090,12.088587 52.388462,11.685785 
	C51.600800,11.560156 50.813133,11.434526 49.349007,11.097871 
	C48.878979,11.075772 48.408947,11.053674 47.585491,10.782411 
	C47.036739,10.844302 46.487991,10.906194 45.024715,10.851767 
	C40.706726,10.888286 36.388741,10.924805 31.841543,10.764803 
	C31.513515,10.677052 31.250280,10.764621 30.514074,11.002232 
	C30.343174,11.056973 30.172276,11.111713 29.389799,11.094533 
	C28.848093,11.353206 28.306385,11.611878 27.081469,11.965367 
	C25.879253,12.630030 24.677036,13.294691 23.221069,14.028726 
	C23.054020,14.126896 22.968658,14.272829 22.301821,14.644381 
	C21.226379,15.775299 20.150940,16.906216 18.488388,18.355347 
	C5.883516,30.551739 4.419960,42.640862 13.642194,56.661850 
	C14.240312,57.571194 13.463408,59.384949 12.764261,60.962669 
	C11.475403,62.284737 10.186544,63.606804 8.198076,65.414177 
	C5.998360,81.452835 15.670691,88.561256 26.711983,89.473915 
	C31.967936,89.908356 37.299801,89.776688 42.577179,89.507492 
	C48.718273,89.194237 52.833813,85.393021 56.044048,80.534767 
	C56.311069,80.130669 55.499474,79.013840 55.292786,78.166718 
	C55.292786,78.166718 55.375027,78.074631 55.905037,78.185692 
	C56.437725,78.143784 56.970413,78.101883 57.523983,78.872215 
	C58.514194,78.456116 59.737587,78.281975 60.458912,77.586853 
	C68.562439,69.777603 68.310310,50.959675 59.857113,42.261856 
	C61.351952,40.173744 62.846790,38.085629 64.638016,35.863239 
	C64.822578,35.742233 64.970238,35.586288 65.260109,35.147182 
M84.102913,12.093427 
	C84.102913,12.093427 84.093391,12.074957 83.618843,12.657882 
	C81.334106,15.319201 79.049370,17.980520 76.349548,21.308924 
	C76.411644,22.850824 76.473740,24.392725 76.386925,26.751579 
	C76.435997,27.853680 76.485077,28.955780 76.244667,30.943430 
	C76.341003,39.939407 76.437340,48.935387 76.386467,58.748924 
	C76.435936,59.851364 76.485405,60.953800 76.248436,62.879738 
	C76.343872,64.897621 76.439316,66.915497 76.386795,69.745255 
	C76.437378,70.840134 76.487968,71.935005 76.248322,73.908928 
	C76.457733,78.337242 76.667152,82.765556 76.966553,87.968903 
	C84.293526,92.617928 93.656219,90.123131 99.768906,82.005066 
	C100.754425,77.835922 101.739952,73.666786 102.854828,68.950409 
	C108.857010,67.792694 116.752388,71.263283 121.913010,63.546219 
	C122.439590,70.934158 122.465843,77.674576 122.427849,84.414635 
	C122.410446,87.501991 123.489212,89.488762 126.883492,89.788605 
	C134.106262,90.426643 140.820847,89.898994 145.473969,82.488815 
	C146.046631,81.731644 146.619293,80.974472 147.747025,79.555267 
	C147.816925,57.872379 147.892578,36.189499 147.926666,14.506549 
	C147.927612,13.908152 147.482162,13.309052 146.709641,12.089133 
	C142.736481,11.727786 138.768723,11.237721 134.787415,11.070447 
	C133.262405,11.006374 131.103531,11.152956 130.268890,12.108209 
	C126.646645,16.253870 123.406563,20.733444 119.760689,25.297998 
	C119.606789,25.476774 119.533951,25.684029 119.110481,26.420343 
	C119.081238,26.638735 119.052002,26.857126 118.713318,27.271263 
	C118.524399,27.455095 118.445427,27.677893 117.977356,28.466639 
	C116.415276,30.590948 114.853188,32.715256 113.079414,34.153774 
	C110.021179,28.457882 106.968513,22.758989 103.903328,17.066841 
	C99.930855,9.689830 91.500229,7.575303 84.102913,12.093427 
z"/>
<path fill="#FEA211" opacity="1.000000" stroke="none" 
	d="
M13.326126,60.778000 
	C13.463408,59.384949 14.240312,57.571194 13.642194,56.661850 
	C4.419960,42.640862 5.883516,30.551739 19.101582,18.229258 
	C20.198095,18.474173 20.681416,18.845177 21.039616,19.539349 
	C20.021303,22.245268 19.128113,24.628019 18.101477,27.396160 
	C15.706097,41.797634 20.477163,50.306263 32.398880,52.795990 
	C37.337723,52.922504 41.826077,52.774170 46.286068,53.063328 
	C47.886131,53.167068 49.417793,54.325806 50.966232,55.420147 
	C51.035553,57.223278 51.119312,58.609303 51.127373,60.394032 
	C51.091541,61.871098 51.131409,62.949459 51.105141,64.263184 
	C51.039009,64.498543 51.097588,64.983971 50.945724,65.333916 
	C49.908463,66.344734 49.019070,67.579475 48.138325,67.573334 
	C42.422112,67.533478 36.707783,67.223656 30.990231,66.679955 
	C30.406168,65.800491 29.824711,65.243317 29.220028,64.503456 
	C29.196804,64.320763 29.034986,63.989895 29.125603,63.548439 
	C28.569778,62.069229 28.008615,60.213459 27.262104,60.135632 
	C24.067295,59.802582 20.817839,59.993717 17.056835,59.993717 
	C17.451811,62.529842 17.722481,64.267807 17.957916,66.339645 
	C18.035019,67.103630 18.147360,67.533752 18.223650,68.317215 
	C20.107618,74.429535 23.869373,78.145256 30.258427,79.510406 
	C31.841564,79.997971 33.144604,80.550674 34.402958,80.462868 
	C41.356728,79.977692 48.711651,83.086021 55.189018,78.228157 
	C55.499474,79.013840 56.311069,80.130669 56.044048,80.534767 
	C52.833813,85.393021 48.718273,89.194237 42.577179,89.507492 
	C37.299801,89.776688 31.967936,89.908356 26.711983,89.473915 
	C15.670691,88.561256 5.998360,81.452835 8.804690,65.310791 
	C9.653979,65.505371 9.896654,65.803337 10.099325,66.523636 
	C10.059321,69.172951 10.059321,71.399940 10.059321,73.982742 
	C16.616692,70.762390 17.065319,69.509010 14.794432,61.767834 
	C14.173466,61.233665 13.749796,61.005833 13.326126,60.778000 
M34.667664,65.078873 
	C36.961346,64.967110 39.255028,64.855347 41.548710,64.743584 
	C41.545734,63.999435 41.542759,63.255287 41.539783,62.511135 
	C38.775669,62.511135 36.011551,62.511135 33.247437,62.511135 
	C33.429573,63.312099 33.611706,64.113068 34.667664,65.078873 
M13.971014,31.543247 
	C14.081904,31.831121 14.192796,32.118996 14.303688,32.406872 
	C14.517591,32.131836 14.731496,31.856800 14.945398,31.581764 
	C14.655468,31.364836 14.365538,31.147909 13.971014,31.543247 
z"/>
<path fill="#FEA415" opacity="1.000000" stroke="none" 
	d="
M144.931122,82.684982 
	C140.820847,89.898994 134.106262,90.426643 126.883492,89.788605 
	C123.489212,89.488762 122.410446,87.501991 122.427849,84.414635 
	C122.465843,77.674576 122.439590,70.934158 121.913010,63.546219 
	C116.752388,71.263283 108.857010,67.792694 102.854828,68.950409 
	C101.739952,73.666786 100.754425,77.835922 99.382401,81.681976 
	C98.984901,80.868286 98.973907,80.377678 99.027283,79.437401 
	C99.028130,75.320374 98.964600,71.653015 98.983536,67.614578 
	C98.956406,65.747894 98.846802,64.252281 98.795364,62.286385 
	C98.296463,60.810791 97.739410,59.805492 97.164688,58.825356 
	C97.147018,58.850513 97.269989,58.853134 97.742630,58.847389 
	C98.533508,57.433685 98.784927,56.006344 99.186195,54.622459 
	C99.739204,52.715248 100.405403,50.840862 101.023117,48.952415 
	C102.606850,50.338676 104.837334,51.424820 105.647247,53.170170 
	C107.686394,57.564480 110.272919,59.419716 115.506325,59.407719 
	C121.012154,59.395096 124.108238,57.743031 126.020691,52.712433 
	C126.964699,50.229248 128.304672,46.935062 132.095871,50.249615 
	C132.168884,50.680584 132.230957,50.846317 132.250916,51.477711 
	C132.198990,55.428791 132.089020,58.917454 132.201813,62.398899 
	C132.393066,68.302834 132.724869,74.202209 133.298706,80.380875 
	C137.397522,80.768410 141.195267,80.878578 144.997162,81.272141 
	C144.977905,81.932022 144.954514,82.308502 144.931122,82.684982 
M129.004654,69.724205 
	C129.004654,66.865196 129.004654,64.006187 129.004654,60.889954 
	C121.894241,61.970310 124.440353,66.682137 124.133888,69.948364 
	C124.046524,70.879425 125.374329,71.943268 126.053185,72.946220 
	C127.068260,72.141747 128.083344,71.337280 129.004654,69.724205 
z"/>
<path fill="#FCF1E2" opacity="1.000000" stroke="none" 
	d="
M50.980671,55.003044 
	C49.417793,54.325806 47.886131,53.167068 46.286068,53.063328 
	C41.826077,52.774170 37.337723,52.922504 32.296017,52.495277 
	C33.114048,51.728409 34.485023,51.106258 35.881149,51.043484 
	C43.251251,50.712063 50.627689,50.521595 58.203552,50.171600 
	C58.405174,50.060959 58.851303,49.948975 59.146362,49.860703 
	C59.997803,49.507275 60.554188,49.242115 61.323635,49.247002 
	C65.069511,59.720615 63.943329,69.265778 57.503101,78.059982 
	C56.970413,78.101883 56.437725,78.143784 55.219097,78.110779 
	C53.980042,78.013435 53.426926,77.991005 52.862885,77.562088 
	C45.235886,76.867188 37.619816,76.578758 30.003748,76.290329 
	C29.992599,76.907562 29.981449,77.524803 29.967995,78.426498 
	C29.963022,78.900581 29.960360,79.090218 29.957697,79.279846 
	C23.869373,78.145256 20.107618,74.429535 18.502419,68.317505 
	C19.188953,67.972481 19.560675,67.980530 20.220062,68.279915 
	C23.563202,68.319572 27.045834,70.770393 29.923428,67.103577 
	C30.517416,67.045982 30.755125,67.024117 30.992834,67.002251 
	C36.707783,67.223656 42.422112,67.533478 48.138325,67.573334 
	C49.019070,67.579475 49.908463,66.344734 51.096359,65.252365 
	C51.459991,64.725601 51.595272,64.588341 51.569267,64.542435 
	C51.463486,64.355675 51.308270,64.196907 51.171272,64.027824 
	C51.131409,62.949459 51.091541,61.871098 51.453304,60.326015 
	C52.317699,58.632156 52.780472,57.405018 53.233711,56.203152 
	C55.648785,56.004002 58.051273,55.805889 60.453762,55.607777 
	C60.388008,55.004852 60.322254,54.401932 60.256500,53.799007 
	C57.164558,54.200352 54.072613,54.601696 50.980671,55.003044 
M39.502838,71.747932 
	C34.492004,71.747932 29.481174,71.747932 24.470341,71.747932 
	C24.483606,72.064438 24.496872,72.380943 24.510138,72.697449 
	C35.092197,72.697449 45.674255,72.697449 56.256313,72.697449 
	C56.257668,72.380814 56.259022,72.064178 56.260376,71.747543 
	C51.006893,71.747543 45.753410,71.747543 39.502838,71.747932 
M59.013081,64.963539 
	C59.276058,64.373604 59.539036,63.783669 59.802017,63.193737 
	C57.804413,63.288719 55.806812,63.383701 53.809208,63.478683 
	C53.848114,63.983810 53.887016,64.488937 53.925922,64.994064 
	C55.367085,64.994064 56.808243,64.994064 59.013081,64.963539 
z"/>
<path fill="#F9EEE1" opacity="1.000000" stroke="none" 
	d="
M18.234924,27.010773 
	C19.128113,24.628019 20.021303,22.245268 21.389603,19.304554 
	C22.231468,17.319904 22.598225,15.893215 22.964983,14.466526 
	C22.968658,14.272829 23.054020,14.126896 23.332108,14.481268 
	C24.631220,14.963210 25.819298,14.992611 27.139130,15.258843 
	C27.570986,15.691052 27.871084,15.886430 28.140667,16.499382 
	C28.426830,17.245274 28.740276,17.856716 29.060661,17.860373 
	C36.475834,17.945004 43.892292,18.004633 51.306465,17.909666 
	C51.847263,17.902739 52.372566,16.686613 53.281868,15.994668 
	C53.906742,15.909761 54.154819,15.862861 54.725498,15.910334 
	C59.404057,17.966898 61.770447,21.530184 62.746552,26.190464 
	C60.868694,26.961649 59.337372,27.655046 57.731220,28.006098 
	C55.583313,28.475557 53.377384,28.679567 51.017658,28.651470 
	C47.429768,24.175726 42.760036,26.172083 38.657764,26.024324 
	C30.356611,25.725332 29.837992,26.382513 27.954079,34.897728 
	C24.985567,34.958851 22.493916,34.980877 20.001131,35.001450 
	C20.000000,35.000000 19.997074,34.997738 19.997601,34.569023 
	C19.410393,31.763794 18.822659,29.387283 18.234924,27.010773 
M47.450310,22.824472 
	C51.065598,22.824472 54.680885,22.824472 58.296173,22.824472 
	C58.276924,22.351139 58.257671,21.877806 58.238422,21.404472 
	C46.637821,21.404472 35.037224,21.404472 23.436623,21.404472 
	C23.431307,21.877838 23.425991,22.351204 23.420675,22.824570 
	C31.101948,22.824570 38.783218,22.824570 47.450310,22.824472 
z"/>
<path fill="#FEA210" opacity="1.000000" stroke="none" 
	d="
M28.430935,34.858624 
	C29.837992,26.382513 30.356611,25.725332 38.657764,26.024324 
	C42.760036,26.172083 47.429768,24.175726 50.968758,29.045568 
	C51.157295,30.839548 51.216022,31.893330 51.226799,33.364014 
	C55.132809,33.896114 59.086761,34.011311 63.365387,34.058132 
	C64.131386,33.961491 64.572708,33.933224 65.134125,34.225670 
	C65.358170,34.749657 65.462112,34.952927 65.566063,35.156197 
	C65.566063,35.156197 65.260109,35.147182 64.947540,35.193985 
	C64.634964,35.240791 64.265282,35.532665 64.265282,35.532665 
	C64.265282,35.532665 64.341629,35.997517 64.341629,35.997517 
	C62.846790,38.085629 61.351952,40.173744 59.577442,42.623795 
	C58.527512,42.992046 57.757248,42.998363 56.642357,42.862419 
	C50.332436,41.903095 44.374142,40.522198 38.399647,40.448158 
	C33.657650,40.389393 30.224079,39.482685 28.430935,34.858624 
M35.718716,37.880356 
	C37.585579,37.654739 39.452442,37.429119 41.319305,37.203503 
	C41.276798,36.686253 41.234291,36.169006 41.191780,35.651760 
	C38.501518,35.651760 35.811253,35.651760 32.023232,35.651760 
	C33.399448,36.724422 34.120316,37.286285 35.718716,37.880356 
z"/>
<path fill="#FD9F07" opacity="1.000000" stroke="none" 
	d="
M145.202545,82.586899 
	C144.954514,82.308502 144.977905,81.932022 144.991272,80.990891 
	C144.959427,80.239883 144.937607,80.053528 144.984894,79.411194 
	C145.003510,67.303963 144.953018,55.652714 144.984238,43.670738 
	C145.013565,42.891933 144.961182,42.443848 144.997772,41.534328 
	C145.028702,33.721176 144.970673,26.369461 144.994812,18.646370 
	C145.021683,17.520699 144.966385,16.766405 144.996994,15.701002 
	C144.711136,14.756960 144.339371,14.124028 143.534210,13.364786 
	C139.492569,13.238478 135.884323,13.238478 132.318237,13.238478 
	C127.570145,21.765305 122.968513,30.235510 118.093292,38.545197 
	C117.419441,39.693737 115.391640,40.047916 113.892731,40.602531 
	C113.624352,40.230938 113.412735,40.087250 112.986931,39.723381 
	C112.450615,38.443329 112.087349,37.444061 111.917892,36.116192 
	C112.504837,35.471581 112.897972,35.155571 113.291100,34.839561 
	C114.853188,32.715256 116.415276,30.590948 118.366928,28.095053 
	C118.918266,27.537506 119.007019,27.321522 119.022758,27.075518 
	C119.052002,26.857126 119.081238,26.638735 119.451828,26.063377 
	C119.937347,25.526695 120.015480,25.321770 120.027565,25.091635 
	C123.406563,20.733444 126.646645,16.253870 130.268890,12.108209 
	C131.103531,11.152956 133.262405,11.006374 134.787415,11.070447 
	C138.768723,11.237721 142.736481,11.727786 146.892517,12.885269 
	C147.114243,35.860039 147.153107,58.038670 147.191956,80.217300 
	C146.619293,80.974472 146.046631,81.731644 145.202545,82.586899 
z"/>
<path fill="#FDA009" opacity="1.000000" stroke="none" 
	d="
M98.962914,79.887077 
	C98.973907,80.377678 98.984901,80.868286 99.002823,81.727066 
	C93.656219,90.123131 84.293526,92.617928 76.993103,87.109756 
	C77.085587,82.501877 77.151512,78.753136 77.480141,75.003738 
	C78.093117,75.003586 78.443382,75.004097 78.920517,75.289436 
	C79.762955,74.439301 80.478539,73.304337 81.392670,72.116974 
	C81.591209,72.064583 81.997276,72.003304 82.327606,72.077446 
	C83.103722,72.100533 83.549492,72.049484 84.309738,72.000305 
	C85.043396,72.006081 85.462570,72.009987 85.954681,72.459991 
	C86.027611,75.483719 86.027611,78.061356 86.027611,81.183304 
	C90.922966,80.692749 94.942940,80.289909 98.962914,79.887077 
z"/>
<path fill="#FEA10B" opacity="1.000000" stroke="none" 
	d="
M78.793655,75.004608 
	C78.443382,75.004097 78.093117,75.003586 77.426178,74.741623 
	C76.919189,73.996742 76.728874,73.513313 76.538551,73.029884 
	C76.487968,71.935005 76.437378,70.840134 76.641281,69.037010 
	C76.775467,66.237923 76.655174,64.147079 76.534874,62.056240 
	C76.485405,60.953800 76.435936,59.851364 76.651962,57.988342 
	C76.789696,48.171131 76.661926,39.114506 76.534149,30.057880 
	C76.485077,28.955780 76.435997,27.853680 76.648628,26.017731 
	C76.861763,23.736536 76.813194,22.189190 76.764626,20.641842 
	C79.049370,17.980520 81.334106,15.319201 84.048111,12.617395 
	C85.025475,12.898455 85.573578,13.220001 86.122345,14.011385 
	C86.050743,16.329586 85.978470,18.177950 85.674896,20.121677 
	C85.009659,20.461889 84.575722,20.706736 83.909103,20.701874 
	C82.739769,21.273176 81.803116,22.094187 80.670677,23.027357 
	C80.218742,23.327410 80.062752,23.577723 79.611267,24.098040 
	C79.103783,37.166950 78.977638,50.028248 78.947731,62.889771 
	C78.946815,63.283730 79.946877,63.680012 80.685959,64.100960 
	C80.891663,64.126709 81.304573,64.117058 81.304573,64.117058 
	C81.304573,64.117058 81.717590,64.119316 81.757385,64.464333 
	C81.772270,65.502228 81.747368,66.195107 81.554680,66.901306 
	C81.386894,66.914627 81.049866,66.940735 80.640427,66.994499 
	C79.751877,69.700378 79.272766,72.352493 78.793655,75.004608 
z"/>
<path fill="#FDA41A" opacity="1.000000" stroke="none" 
	d="
M113.185257,34.496666 
	C112.897972,35.155571 112.504837,35.471581 111.651672,35.883598 
	C107.596611,29.441395 104.096138,22.847898 100.330956,16.409195 
	C99.527824,15.035779 97.835762,13.442288 96.426064,13.310509 
	C93.014290,12.991576 89.527512,13.474971 85.689728,13.442062 
	C84.894035,12.860117 84.479584,12.471081 84.065125,12.082045 
	C91.500229,7.575303 99.930855,9.689830 103.903328,17.066841 
	C106.968513,22.758989 110.021179,28.457882 113.185257,34.496666 
z"/>
<path fill="#FBAA32" opacity="1.000000" stroke="none" 
	d="
M56.986988,43.004681 
	C57.757248,42.998363 58.527512,42.992046 59.682995,42.984428 
	C68.310310,50.959675 68.562439,69.777603 60.458912,77.586853 
	C59.737587,78.281975 58.514194,78.456116 57.513542,78.466095 
	C63.943329,69.265778 65.069511,59.720615 61.265480,48.914299 
	C59.658504,46.542587 58.322746,44.773636 56.986988,43.004681 
z"/>
<path fill="#E0AA56" opacity="1.000000" stroke="none" 
	d="
M147.469482,79.886284 
	C147.153107,58.038670 147.114243,35.860039 147.160126,13.195843 
	C147.482162,13.309052 147.927612,13.908152 147.926666,14.506549 
	C147.892578,36.189499 147.816925,57.872379 147.469482,79.886284 
z"/>
<path fill="#F6E1C8" opacity="1.000000" stroke="none" 
	d="
M52.873810,77.968567 
	C53.426926,77.991005 53.980042,78.013435 54.954094,78.055252 
	C55.375027,78.074631 55.292786,78.166718 55.240902,78.197433 
	C48.711651,83.086021 41.356728,79.977692 34.402958,80.462868 
	C33.144604,80.550674 31.841564,79.997971 30.258427,79.510406 
	C29.960360,79.090218 29.963022,78.900581 30.436054,78.371124 
	C38.228886,78.010384 45.551346,77.989479 52.873810,77.968567 
z"/>
<path fill="#FEA211" opacity="1.000000" stroke="none" 
	d="
M27.007374,15.022012 
	C25.819298,14.992611 24.631220,14.963210 23.458982,14.446581 
	C24.677036,13.294691 25.879253,12.630030 27.735571,11.964271 
	C28.926908,11.697600 29.464142,11.432028 30.001377,11.166454 
	C30.172276,11.111713 30.343174,11.056973 31.039783,11.030889 
	C31.733912,11.026805 31.902330,10.994063 32.070751,10.961323 
	C36.388741,10.924805 40.706726,10.888286 45.813049,10.964591 
	C47.047230,11.062136 47.493073,11.046856 47.938919,11.031576 
	C48.408947,11.053674 48.878979,11.075772 49.906132,11.417051 
	C51.263935,11.845864 52.064613,11.955498 52.865292,12.065132 
	C53.066090,12.088587 53.266888,12.112041 53.828011,12.427279 
	C54.362652,12.888568 54.570400,12.988777 54.811577,13.019691 
	C54.913738,13.155830 55.015903,13.291969 54.775841,13.715040 
	C53.831978,14.102961 53.230343,14.203948 52.207104,14.247643 
	C50.087032,13.888119 48.388565,13.585888 46.382172,13.144932 
	C40.741871,13.245983 35.409496,13.485760 29.740290,13.790387 
	C28.604765,14.244163 27.806068,14.633087 27.007374,15.022012 
z"/>
<path fill="#FBAC37" opacity="1.000000" stroke="none" 
	d="
M52.628708,14.304936 
	C53.230343,14.203948 53.831978,14.102961 54.888168,13.944314 
	C61.050804,15.618982 64.329277,19.418957 65.038986,25.661575 
	C64.977470,25.970514 64.966171,25.925619 64.650909,25.982264 
	C63.910347,26.012684 63.485054,25.986462 63.059761,25.960239 
	C61.770447,21.530184 59.404057,17.966898 54.521435,15.697431 
	C53.539417,15.028415 53.084061,14.666676 52.628708,14.304936 
z"/>
<path fill="#F9AF41" opacity="1.000000" stroke="none" 
	d="
M76.389404,30.500656 
	C76.661926,39.114506 76.789696,48.171131 76.725571,57.579559 
	C76.437340,48.935387 76.341003,39.939407 76.389404,30.500656 
z"/>
<path fill="#FBAD3E" opacity="1.000000" stroke="none" 
	d="
M13.045194,60.870335 
	C13.749796,61.005833 14.173466,61.233665 14.653730,62.095612 
	C13.186661,63.853580 11.662995,64.977440 10.139329,66.101295 
	C9.896654,65.803337 9.653979,65.505371 9.154495,65.068146 
	C10.186544,63.606804 11.475403,62.284737 13.045194,60.870335 
z"/>
<path fill="#F9EEE1" opacity="1.000000" stroke="none" 
	d="
M65.878830,34.969151 
	C65.462112,34.952927 65.358170,34.749657 65.118393,33.785812 
	C64.977104,30.658701 64.971642,28.292160 64.966171,25.925619 
	C64.966171,25.925619 64.977470,25.970514 64.955276,25.961040 
	C68.796356,28.404280 66.914970,31.675711 65.878830,34.969151 
z"/>
<path fill="#F9AF41" opacity="1.000000" stroke="none" 
	d="
M76.393433,73.469406 
	C76.728874,73.513313 76.919189,73.996742 77.163475,74.742287 
	C77.151512,78.753136 77.085587,82.501877 76.948120,86.722244 
	C76.667152,82.765556 76.457733,78.337242 76.393433,73.469406 
z"/>
<path fill="#FBAC37" opacity="1.000000" stroke="none" 
	d="
M22.633402,14.555453 
	C22.598225,15.893215 22.231468,17.319904 21.514725,18.981388 
	C20.681416,18.845177 20.198095,18.474173 19.395138,18.070152 
	C20.150940,16.906216 21.226379,15.775299 22.633402,14.555453 
z"/>
<path fill="#F9AF41" opacity="1.000000" stroke="none" 
	d="
M76.391663,62.467987 
	C76.655174,64.147079 76.775467,66.237923 76.715256,68.631073 
	C76.439316,66.915497 76.343872,64.897621 76.391663,62.467987 
z"/>
<path fill="#F9AF41" opacity="1.000000" stroke="none" 
	d="
M76.557083,20.975384 
	C76.813194,22.189190 76.861763,23.736536 76.723083,25.609253 
	C76.473740,24.392725 76.411644,22.850824 76.557083,20.975384 
z"/>
<path fill="#F5DBBB" opacity="1.000000" stroke="none" 
	d="
M84.084015,12.087736 
	C84.479584,12.471081 84.894035,12.860117 85.692612,13.414055 
	C86.076736,13.578958 86.121681,13.541549 86.121681,13.541548 
	C85.573578,13.220001 85.025475,12.898455 84.285385,12.325933 
	C84.093391,12.074957 84.102913,12.093427 84.084015,12.087736 
z"/>
<path fill="#FBAC37" opacity="1.000000" stroke="none" 
	d="
M52.626877,11.875459 
	C52.064613,11.955498 51.263935,11.845864 50.244362,11.522564 
	C50.813133,11.434526 51.600800,11.560156 52.626877,11.875459 
z"/>
<path fill="#FBAC37" opacity="1.000000" stroke="none" 
	d="
M47.762207,10.906994 
	C47.493073,11.046856 47.047230,11.062136 46.270309,11.022750 
	C46.487991,10.906194 47.036739,10.844302 47.762207,10.906994 
z"/>
<path fill="#FBAC37" opacity="1.000000" stroke="none" 
	d="
M29.695587,11.130494 
	C29.464142,11.432028 28.926908,11.697600 28.077175,11.916862 
	C28.306385,11.611878 28.848093,11.353206 29.695587,11.130494 
z"/>
<path fill="#FBAC37" opacity="1.000000" stroke="none" 
	d="
M54.777481,12.818050 
	C54.570400,12.988777 54.362652,12.888568 54.095131,12.570817 
	C54.297054,12.303835 54.544209,12.368447 54.777481,12.818050 
z"/>
<path fill="#FBAC37" opacity="1.000000" stroke="none" 
	d="
M31.956146,10.863063 
	C31.902330,10.994063 31.733912,11.026805 31.308664,11.043528 
	C31.250280,10.764621 31.513515,10.677052 31.956146,10.863063 
z"/>
<path fill="#FDA41A" opacity="1.000000" stroke="none" 
	d="
M119.894127,25.194817 
	C120.015480,25.321770 119.937347,25.526695 119.667671,25.813087 
	C119.533951,25.684029 119.606789,25.476774 119.894127,25.194817 
z"/>
<path fill="#FDA41A" opacity="1.000000" stroke="none" 
	d="
M118.868042,27.173389 
	C119.007019,27.321522 118.918266,27.537506 118.616440,27.831560 
	C118.445427,27.677893 118.524399,27.455095 118.868042,27.173389 
z"/>
<path fill="#F9EEE1" opacity="1.000000" stroke="none" 
	d="
M64.489822,35.930378 
	C64.341629,35.997517 64.265282,35.532665 64.265282,35.532665 
	C64.265282,35.532665 64.634964,35.240791 64.857979,35.318096 
	C64.970238,35.586288 64.822578,35.742233 64.489822,35.930378 
z"/>
<path fill="#FBF1E4" opacity="1.000000" stroke="none" 
	d="
M56.642357,42.862419 
	C58.322746,44.773636 59.658504,46.542587 61.052422,48.644245 
	C60.554188,49.242115 59.997803,49.507275 59.033066,49.489906 
	C48.648949,49.038986 38.673214,48.868076 28.696936,48.738819 
	C28.599648,48.737564 28.495203,49.288696 28.152653,50.282238 
	C38.261585,50.282238 48.131760,50.282238 58.001930,50.282238 
	C50.627689,50.521595 43.251251,50.712063 35.881149,51.043484 
	C34.485023,51.106258 33.114048,51.728409 31.834332,52.393173 
	C20.477163,50.306263 15.706097,41.797634 18.101479,27.396160 
	C18.822659,29.387283 19.410393,31.763794 19.860197,34.623634 
	C19.815599,35.072277 19.908930,35.037590 20.002262,35.002899 
	C22.493916,34.980877 24.985567,34.958851 27.954079,34.897728 
	C30.224079,39.482685 33.657650,40.389393 38.399647,40.448158 
	C44.374142,40.522198 50.332436,41.903095 56.642357,42.862419 
M46.412064,45.919518 
	C49.121758,45.919518 51.831448,45.919518 54.541142,45.919518 
	C54.516567,45.352482 54.491997,44.785446 54.467422,44.218410 
	C44.224251,44.218410 33.981079,44.218410 23.737909,44.218410 
	C23.717690,44.785397 23.697470,45.352383 23.677250,45.919369 
	C30.929213,45.919369 38.181175,45.919369 46.412064,45.919518 
M27.785175,40.174438 
	C25.720827,40.174438 23.656479,40.174438 21.592131,40.174438 
	C21.698982,40.897030 21.805832,41.619621 21.912682,42.342213 
	C24.067991,41.771751 26.223301,41.201294 27.785175,40.174438 
z"/>
<path fill="#FCF1E2" opacity="1.000000" stroke="none" 
	d="
M17.993151,66.005775 
	C17.722481,64.267807 17.451811,62.529842 17.056835,59.993717 
	C20.817839,59.993717 24.067295,59.802582 27.262104,60.135632 
	C28.008615,60.213459 28.569778,62.069229 28.859144,63.649464 
	C27.997679,64.452950 27.493288,64.713966 26.730362,64.700706 
	C24.320374,64.604843 22.168924,64.783241 19.753403,65.071121 
	C18.990606,65.455650 18.491879,65.730713 17.993151,66.005775 
z"/>
<path fill="#FABB67" opacity="1.000000" stroke="none" 
	d="
M10.099325,66.523636 
	C11.662995,64.977440 13.186661,63.853580 14.851028,62.401947 
	C17.065319,69.509010 16.616692,70.762390 10.059321,73.982742 
	C10.059321,71.399940 10.059321,69.172951 10.099325,66.523636 
z"/>
<path fill="#FCEFDF" opacity="1.000000" stroke="none" 
	d="
M34.230751,64.996452 
	C33.611706,64.113068 33.429573,63.312099 33.247437,62.511135 
	C36.011551,62.511135 38.775669,62.511135 41.539783,62.511135 
	C41.542759,63.255287 41.545734,63.999435 41.548710,64.743584 
	C39.255028,64.855347 36.961346,64.967110 34.230751,64.996452 
z"/>
<path fill="#FBF1E4" opacity="1.000000" stroke="none" 
	d="
M50.966232,55.420143 
	C54.072613,54.601696 57.164558,54.200352 60.256500,53.799007 
	C60.322254,54.401932 60.388008,55.004852 60.453762,55.607777 
	C58.051273,55.805889 55.648785,56.004002 53.233711,56.203152 
	C52.780472,57.405018 52.317699,58.632156 51.528999,59.927315 
	C51.119312,58.609303 51.035553,57.223278 50.966232,55.420143 
z"/>
<path fill="#FEFEFD" opacity="1.000000" stroke="none" 
	d="
M17.957916,66.339645 
	C18.491879,65.730713 18.990606,65.455650 20.188160,65.084824 
	C22.920956,64.984367 24.954926,64.979668 26.988897,64.974976 
	C27.493288,64.713966 27.997679,64.452950 28.768528,64.090919 
	C29.034986,63.989895 29.196804,64.320763 29.067217,64.783356 
	C28.262329,65.747429 27.587027,66.248909 26.497036,66.784393 
	C24.032360,67.208466 21.982378,67.598518 19.932394,67.988571 
	C19.560675,67.980530 19.188953,67.972481 18.538467,67.964157 
	C18.147360,67.533752 18.035019,67.103630 17.957916,66.339645 
z"/>
<path fill="#FCE6C9" opacity="1.000000" stroke="none" 
	d="
M26.911724,66.750381 
	C27.587027,66.248909 28.262329,65.747429 29.090441,64.966049 
	C29.824711,65.243317 30.406168,65.800491 30.990231,66.679955 
	C30.755125,67.024117 30.517416,67.045982 29.594492,67.071465 
	C28.243425,66.966850 27.577574,66.858612 26.911724,66.750381 
z"/>
<path fill="#F5DDC0" opacity="1.000000" stroke="none" 
	d="
M14.023311,31.237114 
	C14.365538,31.147909 14.655468,31.364836 14.945398,31.581764 
	C14.731496,31.856800 14.517591,32.131836 14.303688,32.406872 
	C14.192796,32.118996 14.081904,31.831121 14.023311,31.237114 
z"/>
<path fill="#FBF1E4" opacity="1.000000" stroke="none" 
	d="
M51.105141,64.263184 
	C51.308270,64.196907 51.463486,64.355675 51.569267,64.542435 
	C51.595272,64.588341 51.459991,64.725601 51.248222,64.902420 
	C51.097588,64.983971 51.039009,64.498543 51.105141,64.263184 
z"/>
<path fill="#F6EFE6" opacity="1.000000" stroke="none" 
	d="
M144.902527,44.001465 
	C144.953018,55.652714 145.003510,67.303963 144.531006,79.442406 
	C140.337875,79.987564 136.667740,80.045540 132.997620,80.103516 
	C132.724869,74.202209 132.393066,68.302834 132.201813,62.398899 
	C132.089020,58.917454 132.198990,55.428791 132.375122,51.355377 
	C132.389282,50.506382 132.237106,50.245377 132.084946,49.984375 
	C128.304672,46.935062 126.964699,50.229248 126.020691,52.712433 
	C124.108238,57.743031 121.012154,59.395096 115.506325,59.407719 
	C110.272919,59.419716 107.686394,57.564480 105.647247,53.170170 
	C104.837334,51.424820 102.606850,50.338676 101.023117,48.952415 
	C100.405403,50.840862 99.739204,52.715248 99.186195,54.622459 
	C98.784927,56.006344 98.533508,57.433685 97.351746,58.564388 
	C93.640213,58.271095 90.320648,55.861954 87.820496,59.891609 
	C87.068192,59.848347 86.768021,59.819416 86.397675,59.409149 
	C86.657509,54.360451 86.987511,49.693085 87.768089,45.342491 
	C105.871483,45.770458 123.524246,45.893837 141.177231,45.950378 
	C141.919540,45.952755 142.663834,45.333069 143.580460,44.856667 
	C144.136642,44.473923 144.519592,44.237690 144.902527,44.001465 
M108.449211,48.438957 
	C108.244164,48.914822 108.039116,49.390682 107.834068,49.866543 
	C113.222733,49.866543 118.611397,49.866543 124.000061,49.866543 
	C123.996368,49.335106 123.992676,48.803673 123.988983,48.272236 
	C119.087990,48.272236 114.187004,48.272236 108.449211,48.438957 
M143.224976,69.063255 
	C141.900208,66.308792 138.724457,66.067162 135.117126,69.579987 
	C137.613007,69.579987 140.108871,69.579987 143.224976,69.063255 
M143.122513,64.220863 
	C141.374893,61.224949 137.788727,61.041107 133.753326,64.699821 
	C137.319763,64.699821 139.919128,64.699821 143.122513,64.220863 
M138.785538,78.023972 
	C140.263367,77.931351 141.741180,77.838737 143.219009,77.746124 
	C143.211685,77.314354 143.204376,76.882584 143.197052,76.450813 
	C141.022690,76.345963 138.844803,76.138847 136.676575,76.213196 
	C136.178131,76.230286 135.712830,77.214035 135.232285,77.752922 
	C136.157013,77.881042 137.081757,78.009163 138.785538,78.023972 
M139.251419,50.972679 
	C140.656296,50.566025 142.061172,50.159374 143.466049,49.752724 
	C143.343842,49.306522 143.221634,48.860321 143.099426,48.414120 
	C140.580978,48.753841 138.062546,49.093563 135.544098,49.433289 
	C135.515106,49.748245 135.486115,50.063206 135.457108,50.378166 
	C136.465881,50.576637 137.474640,50.775108 139.251419,50.972679 
M94.036430,50.939487 
	C94.145660,50.333042 94.254898,49.726593 94.364128,49.120152 
	C92.366524,49.031277 90.368919,48.942406 88.371315,48.853535 
	C88.311684,49.249672 88.252060,49.645813 88.192429,50.041954 
	C89.885307,50.350666 91.578178,50.659378 94.036430,50.939487 
M139.472015,57.033939 
	C138.487076,57.232655 137.502121,57.431370 136.517181,57.630085 
	C136.549225,57.933460 136.581268,58.236832 136.613297,58.540207 
	C138.780869,58.540207 140.948425,58.540207 143.115997,58.540207 
	C143.160187,58.307888 143.204391,58.075569 143.248596,57.843250 
	C142.246567,57.574036 141.244522,57.304825 139.472015,57.033939 
z"/>
<path fill="#F7ECDF" opacity="1.000000" stroke="none" 
	d="
M99.027283,79.437401 
	C94.942940,80.289909 90.922966,80.692749 86.027611,81.183304 
	C86.027611,78.061356 86.027611,75.483719 86.047058,72.060715 
	C86.184311,70.135742 86.302109,69.056137 86.784508,67.957352 
	C91.080765,64.406464 94.989365,66.579788 98.901070,67.985664 
	C98.964600,71.653015 99.028130,75.320374 99.027283,79.437401 
M92.492744,76.053101 
	C91.133423,76.566208 89.774109,77.079315 88.414795,77.592415 
	C88.547646,77.974419 88.680496,78.356430 88.813354,78.738434 
	C91.282654,78.738434 93.751953,78.738434 96.221245,78.738434 
	C96.336884,78.397781 96.452522,78.057121 96.568161,77.716469 
	C95.468010,77.163269 94.367867,76.610069 92.492744,76.053101 
z"/>
<path fill="#F6D3A3" opacity="1.000000" stroke="none" 
	d="
M129.051544,70.128510 
	C128.083344,71.337280 127.068260,72.141747 126.053185,72.946220 
	C125.374329,71.943268 124.046524,70.879425 124.133888,69.948364 
	C124.440353,66.682137 121.894241,61.970310 129.004654,60.889954 
	C129.004654,64.006187 129.004654,66.865196 129.051544,70.128510 
z"/>
<path fill="#FBF9F7" opacity="1.000000" stroke="none" 
	d="
M98.983536,67.614578 
	C94.989365,66.579788 91.080765,64.406464 86.700447,67.546616 
	C86.327187,65.768669 86.402596,64.382301 86.705795,62.994328 
	C87.237312,62.996349 87.540901,63.005119 88.310928,63.027199 
	C91.536339,63.026211 94.295166,63.017048 97.476395,62.955868 
	C98.178276,62.854790 98.457741,62.805733 98.737198,62.756676 
	C98.846802,64.252281 98.956406,65.747894 98.983536,67.614578 
z"/>
<path fill="#FCFCFB" opacity="1.000000" stroke="none" 
	d="
M98.795364,62.286385 
	C98.457741,62.805733 98.178276,62.854790 97.192825,62.667305 
	C93.606003,62.626850 90.725166,62.822937 87.844330,63.019028 
	C87.540901,63.005119 87.237312,62.996349 86.606873,62.682831 
	C86.342728,61.512127 86.405289,60.651306 86.467850,59.790489 
	C86.768021,59.819416 87.068192,59.848347 88.093887,59.995884 
	C91.607056,59.676395 94.394699,59.238297 97.182350,58.800194 
	C97.739410,59.805492 98.296463,60.810791 98.795364,62.286385 
z"/>
<path fill="#E3AE69" opacity="1.000000" stroke="none" 
	d="
M97.164688,58.825356 
	C94.394699,59.238297 91.607056,59.676395 88.546005,60.010220 
	C90.320648,55.861954 93.640213,58.271095 96.879112,58.570129 
	C97.269989,58.853134 97.147018,58.850513 97.164688,58.825356 
z"/>
<path fill="#F8AF45" opacity="1.000000" stroke="none" 
	d="
M133.298691,80.380875 
	C136.667740,80.045540 140.337875,79.987564 144.461899,79.898384 
	C144.937607,80.053528 144.959427,80.239883 144.987137,80.707489 
	C141.195267,80.878578 137.397522,80.768410 133.298691,80.380875 
z"/>
<path fill="#F5DBBB" opacity="1.000000" stroke="none" 
	d="
M132.095871,50.249615 
	C132.237106,50.245377 132.389282,50.506382 132.417236,50.889717 
	C132.230957,50.846317 132.168884,50.680584 132.095871,50.249615 
z"/>
<path fill="#F8AF49" opacity="1.000000" stroke="none" 
	d="
M58.203552,50.171600 
	C48.131760,50.282238 38.261585,50.282238 28.152653,50.282238 
	C28.495203,49.288696 28.599648,48.737564 28.696936,48.738819 
	C38.673214,48.868076 48.648949,49.038986 58.738010,49.578178 
	C58.851303,49.948975 58.405174,50.060959 58.203552,50.171600 
z"/>
<path fill="#F4AF43" opacity="1.000000" stroke="none" 
	d="
M52.862885,77.562088 
	C45.551346,77.989479 38.228886,78.010384 30.438362,78.086662 
	C29.981449,77.524803 29.992599,76.907562 30.003748,76.290329 
	C37.619816,76.578758 45.235886,76.867188 52.862885,77.562088 
z"/>
<path fill="#FBA92A" opacity="1.000000" stroke="none" 
	d="
M40.001381,71.747742 
	C45.753410,71.747543 51.006893,71.747543 56.260376,71.747543 
	C56.259022,72.064178 56.257668,72.380814 56.256313,72.697449 
	C45.674255,72.697449 35.092197,72.697449 24.510138,72.697449 
	C24.496872,72.380943 24.483606,72.064438 24.470341,71.747932 
	C29.481174,71.747932 34.492004,71.747932 40.001381,71.747742 
z"/>
<path fill="#FAB95D" opacity="1.000000" stroke="none" 
	d="
M26.497034,66.784393 
	C27.577574,66.858612 28.243425,66.966850 29.238211,67.107193 
	C27.045834,70.770393 23.563202,68.319572 20.220062,68.279915 
	C21.982378,67.598518 24.032360,67.208466 26.497034,66.784393 
z"/>
<path fill="#FBF1E4" opacity="1.000000" stroke="none" 
	d="
M58.631241,64.978806 
	C56.808243,64.994064 55.367085,64.994064 53.925922,64.994064 
	C53.887016,64.488937 53.848114,63.983810 53.809208,63.478683 
	C55.806812,63.383701 57.804413,63.288719 59.802017,63.193737 
	C59.539036,63.783669 59.276058,64.373604 58.631241,64.978806 
z"/>
<path fill="#FDB757" opacity="1.000000" stroke="none" 
	d="
M46.957401,22.824520 
	C38.783218,22.824570 31.101948,22.824570 23.420675,22.824570 
	C23.425991,22.351204 23.431307,21.877838 23.436623,21.404472 
	C35.037224,21.404472 46.637821,21.404472 58.238422,21.404472 
	C58.257671,21.877806 58.276924,22.351139 58.296173,22.824472 
	C54.680885,22.824472 51.065598,22.824472 46.957401,22.824520 
z"/>
<path fill="#FAB24F" opacity="1.000000" stroke="none" 
	d="
M52.905071,16.032673 
	C52.372566,16.686613 51.847263,17.902739 51.306465,17.909666 
	C43.892292,18.004633 36.475834,17.945004 29.060661,17.860373 
	C28.740276,17.856716 28.426830,17.245274 28.593666,16.525425 
	C37.019810,16.100153 44.962440,16.066414 52.905071,16.032673 
z"/>
<path fill="#FFFEFC" opacity="1.000000" stroke="none" 
	d="
M64.650909,25.982264 
	C64.971642,28.292160 64.977104,30.658701 64.998306,33.465099 
	C64.572708,33.933224 64.131386,33.961491 63.210438,33.695854 
	C62.305958,28.353651 58.683681,28.392185 55.271435,29.250067 
	C53.727001,29.638359 52.594257,31.664179 51.274742,32.947113 
	C51.216022,31.893330 51.157295,30.839548 51.147469,29.391666 
	C53.377384,28.679567 55.583313,28.475557 57.731220,28.006098 
	C59.337372,27.655046 60.868694,26.961649 62.746552,26.190464 
	C63.485054,25.986462 63.910347,26.012684 64.650909,25.982264 
z"/>
<path fill="#FCEBD3" opacity="1.000000" stroke="none" 
	d="
M53.281868,15.994668 
	C44.962440,16.066414 37.019810,16.100153 28.624180,16.107851 
	C27.871084,15.886430 27.570986,15.691052 27.139130,15.258843 
	C27.806068,14.633087 28.604765,14.244163 29.941427,14.164659 
	C34.201069,14.553923 37.928844,14.789412 41.641682,14.643863 
	C43.339649,14.577299 45.008205,13.760308 46.690098,13.283656 
	C48.388565,13.585888 50.087032,13.888119 52.207104,14.247644 
	C53.084061,14.666676 53.539417,15.028415 54.198833,15.603058 
	C54.154819,15.862861 53.906742,15.909761 53.281868,15.994668 
z"/>
<path fill="#F9EEE1" opacity="1.000000" stroke="none" 
	d="
M51.226799,33.364014 
	C52.594257,31.664179 53.727001,29.638359 55.271435,29.250067 
	C58.683681,28.392185 62.305958,28.353651 62.885765,33.764229 
	C59.086761,34.011311 55.132809,33.896114 51.226799,33.364014 
z"/>
<path fill="#ECDCC9" opacity="1.000000" stroke="none" 
	d="
M35.279945,37.864250 
	C34.120316,37.286285 33.399448,36.724422 32.023232,35.651760 
	C35.811253,35.651760 38.501518,35.651760 41.191780,35.651760 
	C41.234291,36.169006 41.276798,36.686253 41.319305,37.203503 
	C39.452442,37.429119 37.585579,37.654739 35.279945,37.864250 
z"/>
<path fill="#FCF4EB" opacity="1.000000" stroke="none" 
	d="
M144.984238,43.670738 
	C144.519592,44.237690 144.136642,44.473923 143.491943,44.832607 
	C143.230179,44.955063 143.062225,45.010643 142.847748,44.625473 
	C124.847404,44.151867 107.061546,44.058998 89.275581,44.000149 
	C88.824295,43.998653 88.371758,44.371319 87.547379,44.595085 
	C86.748566,42.471050 86.322174,40.321426 85.928055,37.942471 
	C85.938110,37.078045 85.915871,36.442951 85.988861,35.362808 
	C86.024788,29.953949 85.965492,24.990129 85.906197,20.026312 
	C85.978470,18.177950 86.050743,16.329586 86.122345,14.011387 
	C86.121681,13.541549 86.076736,13.578958 86.073853,13.606965 
	C89.527512,13.474971 93.014290,12.991576 96.426064,13.310509 
	C97.835762,13.442288 99.527824,15.035779 100.330956,16.409195 
	C104.096138,22.847898 107.596611,29.441395 111.457855,36.212196 
	C112.087349,37.444061 112.450615,38.443329 112.983353,39.971970 
	C113.152809,40.501343 113.501045,40.856117 113.501045,40.856117 
	C113.501045,40.856117 113.990646,40.769840 113.990646,40.769840 
	C115.391640,40.047916 117.419441,39.693737 118.093292,38.545197 
	C122.968513,30.235510 127.570145,21.765305 132.318237,13.238478 
	C135.884323,13.238478 139.492569,13.238478 143.541702,13.674801 
	C143.979568,14.732035 143.976578,15.352945 143.735931,15.994133 
	C143.228424,16.139273 142.958542,16.264137 142.688675,16.389000 
	C143.131439,16.267406 143.574219,16.145813 144.240509,16.020790 
	C144.464020,16.017361 144.911087,16.012112 144.911087,16.012112 
	C144.966385,16.766405 145.021683,17.520699 144.734146,18.908657 
	C144.002243,21.690994 143.613159,23.839672 142.929245,25.661863 
	C138.280792,25.335379 133.927170,25.335379 129.573547,25.335379 
	C129.585724,25.848919 129.597900,26.362459 129.610062,26.875999 
	C133.991837,26.875999 138.373596,26.875999 143.015228,27.029623 
	C143.137054,27.818029 142.999023,28.452814 142.407928,29.067627 
	C136.807495,29.047655 131.660110,29.047655 126.512733,29.047655 
	C126.512512,30.007706 126.512283,30.967754 126.512054,31.927805 
	C131.967926,31.927805 137.423782,31.927805 143.129807,32.105644 
	C143.138611,32.915672 142.897263,33.547863 142.213776,34.172302 
	C135.943375,34.164551 130.115082,34.164551 124.286789,34.164551 
	C124.332260,34.947506 124.377731,35.730457 124.423203,36.513412 
	C130.687759,36.011585 136.952316,35.509754 143.432739,35.256207 
	C143.420731,36.674107 143.192856,37.843727 142.499344,38.997635 
	C135.441605,38.981930 128.849487,38.981930 122.257370,38.981930 
	C122.271271,39.649063 122.285172,40.316196 122.299065,40.983330 
	C129.186218,40.983330 136.073380,40.983330 143.215469,41.086845 
	C143.949860,41.458828 144.429321,41.727299 144.908798,41.995766 
	C144.961182,42.443848 145.013565,42.891933 144.984238,43.670738 
M96.574890,38.965889 
	C93.880402,38.965889 91.185913,38.965889 88.491425,38.965889 
	C88.521164,39.456200 88.550896,39.946510 88.580635,40.436821 
	C95.564140,40.436821 102.547646,40.436821 109.531158,40.436821 
	C109.532295,39.946499 109.533432,39.456177 109.534569,38.965855 
	C105.539139,38.965855 101.543709,38.965855 96.574890,38.965889 
M89.308510,34.265667 
	C89.264809,34.820629 89.221100,35.375587 89.177399,35.930550 
	C95.299736,35.930550 101.422066,35.930550 107.544403,35.930550 
	C107.548721,35.337322 107.553040,34.744099 107.557358,34.150871 
	C101.760178,34.150871 95.962990,34.150871 89.308510,34.265667 
M94.567169,26.897041 
	C96.966408,26.754717 99.365646,26.612391 101.764885,26.470066 
	C101.721161,26.145773 101.677429,25.821478 101.633698,25.497185 
	C97.263748,25.497185 92.893806,25.497185 88.523857,25.497185 
	C88.530502,25.963755 88.537155,26.430325 88.543800,26.896894 
	C90.251495,26.896894 91.959190,26.896894 94.567169,26.897041 
M88.517807,20.334732 
	C88.517807,20.334732 88.393547,20.570122 88.393547,20.570122 
	C88.393547,20.570122 88.659554,20.527779 88.517807,20.334732 
z"/>
<path fill="#F6EFE6" opacity="1.000000" stroke="none" 
	d="
M143.224091,25.988350 
	C143.613159,23.839672 144.002243,21.690994 144.651978,19.280033 
	C144.970673,26.369461 145.028702,33.721176 144.997772,41.534332 
	C144.429321,41.727299 143.949860,41.458828 143.279724,40.760670 
	C143.047684,39.891769 143.006317,39.452557 142.964966,39.013344 
	C143.192856,37.843727 143.420731,36.674107 143.271606,35.063297 
	C142.815033,34.474754 142.735474,34.327400 142.655899,34.180050 
	C142.897263,33.547863 143.138611,32.915672 143.175995,31.752003 
	C142.935028,30.509548 142.898010,29.798573 142.860992,29.087597 
	C142.999023,28.452814 143.137054,27.818029 143.124756,26.803688 
	C143.057648,26.278870 143.140869,26.133610 143.224091,25.988350 
z"/>
<path fill="#F6EFE6" opacity="1.000000" stroke="none" 
	d="
M143.973587,15.973857 
	C143.976578,15.352945 143.979568,14.732035 143.975098,13.801109 
	C144.339371,14.124028 144.711136,14.756960 144.996994,15.701002 
	C144.911087,16.012112 144.464020,16.017361 144.230621,16.007486 
	C143.997238,15.997612 143.973587,15.973857 143.973587,15.973857 
z"/>
<path fill="#FDA41A" opacity="1.000000" stroke="none" 
	d="
M113.892731,40.602531 
	C113.990646,40.769840 113.501045,40.856117 113.501045,40.856117 
	C113.501045,40.856117 113.152809,40.501343 113.156387,40.252754 
	C113.412735,40.087250 113.624352,40.230938 113.892731,40.602531 
z"/>
<path fill="#FFA41C" opacity="1.000000" stroke="none" 
	d="
M85.895775,38.171799 
	C86.322174,40.321426 86.748566,42.471050 87.562515,44.576595 
	C87.950073,44.532513 87.911774,44.510059 87.712639,44.580704 
	C87.513504,44.651344 87.317505,45.025723 87.317505,45.025723 
	C86.987511,49.693085 86.657509,54.360451 86.397675,59.409149 
	C86.405289,60.651306 86.342728,61.512127 86.379089,62.684441 
	C86.402596,64.382301 86.327187,65.768669 86.335838,67.565781 
	C86.302109,69.056137 86.184311,70.135742 85.974136,71.614624 
	C85.462570,72.009987 85.043396,72.006081 84.302643,71.531799 
	C83.978020,60.371651 83.974968,49.681873 84.468643,38.823883 
	C85.275505,38.494377 85.585640,38.333088 85.895775,38.171799 
z"/>
<path fill="#F9DAB1" opacity="1.000000" stroke="none" 
	d="
M83.971924,38.992100 
	C83.974968,49.681873 83.978020,60.371651 83.988174,71.529930 
	C83.549492,72.049484 83.103722,72.100533 82.334282,71.650208 
	C81.914566,69.728539 81.818520,68.308266 81.722466,66.887985 
	C81.747368,66.195107 81.772270,65.502228 81.855843,63.993851 
	C82.250641,53.785347 82.586761,44.392345 83.002655,35.009285 
	C83.082436,35.019230 83.478668,35.003231 83.479225,35.103905 
	C83.479782,35.204582 83.627426,35.341496 83.504982,35.693008 
	C83.579002,37.027046 83.775459,38.009575 83.971924,38.992100 
z"/>
<path fill="#FABA66" opacity="1.000000" stroke="none" 
	d="
M78.920517,75.289436 
	C79.272766,72.352493 79.751877,69.700378 80.630226,67.430328 
	C81.084351,69.264717 81.139236,70.717041 81.194122,72.169365 
	C80.478539,73.304337 79.762955,74.439301 78.920517,75.289436 
z"/>
<path fill="#F9AF41" opacity="1.000000" stroke="none" 
	d="
M81.392670,72.116974 
	C81.139236,70.717041 81.084351,69.264717 81.039658,67.376564 
	C81.049866,66.940735 81.386894,66.914627 81.554680,66.901306 
	C81.818520,68.308266 81.914566,69.728539 82.003952,71.576065 
	C81.997276,72.003304 81.591209,72.064583 81.392670,72.116974 
z"/>
<path fill="#F9AF41" opacity="1.000000" stroke="none" 
	d="
M82.922882,34.999340 
	C82.586761,44.392345 82.250641,53.785347 81.816055,63.648834 
	C81.717590,64.119316 81.304573,64.117058 81.304573,64.117058 
	C81.304573,64.117058 80.891663,64.126709 80.625664,63.632038 
	C80.447823,53.755360 80.535980,44.373356 80.998955,34.970512 
	C81.620369,34.915302 81.866959,34.880924 82.314499,34.892040 
	C82.515457,34.937531 82.922882,34.999340 82.922882,34.999340 
z"/>
<path fill="#F9E8D0" opacity="1.000000" stroke="none" 
	d="
M80.624138,34.991348 
	C80.535980,44.373356 80.447823,53.755360 80.419968,63.606289 
	C79.946877,63.680012 78.946815,63.283730 78.947731,62.889771 
	C78.977638,50.028248 79.103783,37.166950 79.646660,24.555946 
	C80.259842,28.201300 80.441994,31.596325 80.624138,34.991348 
z"/>
<path fill="#FAD9AD" opacity="1.000000" stroke="none" 
	d="
M83.478668,35.003231 
	C83.478668,35.003231 83.082436,35.019230 83.002655,35.009285 
	C82.922882,34.999340 82.515457,34.937531 82.256378,34.455040 
	C81.620361,30.286764 81.243408,26.600983 80.866455,22.915197 
	C81.803116,22.094187 82.739769,21.273176 83.866753,21.169659 
	C83.864273,26.259178 83.671471,30.631205 83.478668,35.003231 
z"/>
<path fill="#FFA41C" opacity="1.000000" stroke="none" 
	d="
M83.479225,35.103905 
	C83.671471,30.631205 83.864273,26.259178 84.099426,21.419365 
	C84.575722,20.706736 85.009659,20.461889 85.674896,20.121677 
	C85.965492,24.990129 86.024788,29.953949 85.438660,35.152733 
	C84.404633,35.372299 84.016029,35.356899 83.627426,35.341496 
	C83.627426,35.341496 83.479782,35.204582 83.479225,35.103905 
z"/>
<path fill="#FABA66" opacity="1.000000" stroke="none" 
	d="
M80.670670,23.027359 
	C81.243408,26.600983 81.620361,30.286764 82.055420,34.409546 
	C81.866959,34.880924 81.620369,34.915302 80.998955,34.970512 
	C80.441994,31.596325 80.259842,28.201300 80.042305,24.348370 
	C80.062752,23.577723 80.218742,23.327410 80.670670,23.027359 
z"/>
<path fill="#FBAC37" opacity="1.000000" stroke="none" 
	d="
M46.382172,13.144932 
	C45.008205,13.760308 43.339649,14.577299 41.641682,14.643863 
	C37.928844,14.789412 34.201069,14.553923 30.278257,14.099808 
	C35.409496,13.485760 40.741871,13.245983 46.382172,13.144932 
z"/>
<path fill="#EFB56A" opacity="1.000000" stroke="none" 
	d="
M45.922600,45.919441 
	C38.181175,45.919369 30.929213,45.919369 23.677250,45.919369 
	C23.697470,45.352383 23.717690,44.785397 23.737909,44.218410 
	C33.981079,44.218410 44.224251,44.218410 54.467422,44.218410 
	C54.491997,44.785446 54.516567,45.352482 54.541142,45.919518 
	C51.831448,45.919518 49.121758,45.919518 45.922600,45.919441 
z"/>
<path fill="#F9EEE1" opacity="1.000000" stroke="none" 
	d="
M28.081894,40.402634 
	C26.223301,41.201294 24.067991,41.771751 21.912682,42.342213 
	C21.805832,41.619621 21.698982,40.897030 21.592131,40.174438 
	C23.656479,40.174438 25.720827,40.174438 28.081894,40.402634 
z"/>
<path fill="#F9EEE1" opacity="1.000000" stroke="none" 
	d="
M20.001131,35.001450 
	C19.908930,35.037590 19.815599,35.072277 19.859671,35.052353 
	C19.997074,34.997738 20.000000,35.000000 20.001131,35.001450 
z"/>
<path fill="#FBF1E4" opacity="1.000000" stroke="none" 
	d="
M26.730362,64.700706 
	C24.954926,64.979668 22.920956,64.984367 20.452229,64.975357 
	C22.168924,64.783241 24.320374,64.604843 26.730362,64.700706 
z"/>
<path fill="#F5DBBB" opacity="1.000000" stroke="none" 
	d="
M87.768089,45.342491 
	C87.317505,45.025723 87.513504,44.651344 88.156036,44.763397 
	C106.886452,44.920517 124.974342,44.965580 143.062225,45.010643 
	C143.062225,45.010643 143.230179,44.955063 143.318695,44.979118 
	C142.663834,45.333069 141.919540,45.952755 141.177231,45.950378 
	C123.524246,45.893837 105.871483,45.770458 87.768089,45.342491 
z"/>
<path fill="#F8AF48" opacity="1.000000" stroke="none" 
	d="
M108.867615,48.355598 
	C114.187004,48.272236 119.087990,48.272236 123.988983,48.272236 
	C123.992676,48.803673 123.996368,49.335106 124.000061,49.866543 
	C118.611397,49.866543 113.222733,49.866543 107.834068,49.866543 
	C108.039116,49.390682 108.244164,48.914822 108.867615,48.355598 
z"/>
<path fill="#F5DBBB" opacity="1.000000" stroke="none" 
	d="
M142.914856,69.321625 
	C140.108871,69.579987 137.613007,69.579987 135.117126,69.579987 
	C138.724457,66.067162 141.900208,66.308792 142.914856,69.321625 
z"/>
<path fill="#F5DBBB" opacity="1.000000" stroke="none" 
	d="
M142.820511,64.460342 
	C139.919128,64.699821 137.319763,64.699821 133.753326,64.699821 
	C137.788727,61.041107 141.374893,61.224949 142.820511,64.460342 
z"/>
<path fill="#F5DBBB" opacity="1.000000" stroke="none" 
	d="
M138.396011,78.080627 
	C137.081757,78.009163 136.157013,77.881042 135.232285,77.752922 
	C135.712830,77.214035 136.178131,76.230286 136.676575,76.213196 
	C138.844803,76.138847 141.022690,76.345963 143.197052,76.450813 
	C143.204376,76.882584 143.211685,77.314354 143.219009,77.746124 
	C141.741180,77.838737 140.263367,77.931351 138.396011,78.080627 
z"/>
<path fill="#F5DBBB" opacity="1.000000" stroke="none" 
	d="
M138.867401,50.973129 
	C137.474640,50.775108 136.465881,50.576637 135.457108,50.378166 
	C135.486115,50.063206 135.515106,49.748245 135.544098,49.433289 
	C138.062546,49.093563 140.580978,48.753841 143.099426,48.414120 
	C143.221634,48.860321 143.343842,49.306522 143.466049,49.752724 
	C142.061172,50.159374 140.656296,50.566025 138.867401,50.973129 
z"/>
<path fill="#F5DBBB" opacity="1.000000" stroke="none" 
	d="
M93.653748,50.953789 
	C91.578178,50.659378 89.885307,50.350666 88.192429,50.041954 
	C88.252060,49.645813 88.311684,49.249672 88.371315,48.853535 
	C90.368919,48.942406 92.366524,49.031277 94.364128,49.120148 
	C94.254898,49.726593 94.145660,50.333042 93.653748,50.953789 
z"/>
<path fill="#F5DBBB" opacity="1.000000" stroke="none" 
	d="
M139.857254,57.034775 
	C141.244522,57.304825 142.246567,57.574036 143.248596,57.843250 
	C143.204391,58.075569 143.160187,58.307888 143.115997,58.540207 
	C140.948425,58.540207 138.780869,58.540207 136.613297,58.540207 
	C136.581268,58.236832 136.549225,57.933460 136.517181,57.630085 
	C137.502121,57.431370 138.487076,57.232655 139.857254,57.034775 
z"/>
<path fill="#F5DBBB" opacity="1.000000" stroke="none" 
	d="
M92.880234,76.054993 
	C94.367867,76.610069 95.468010,77.163269 96.568161,77.716469 
	C96.452522,78.057121 96.336884,78.397781 96.221245,78.738434 
	C93.751953,78.738434 91.282654,78.738434 88.813354,78.738434 
	C88.680496,78.356430 88.547646,77.974419 88.414795,77.592415 
	C89.774109,77.079315 91.133423,76.566208 92.880234,76.054993 
z"/>
<path fill="#F5DBBB" opacity="1.000000" stroke="none" 
	d="
M88.310928,63.027199 
	C90.725166,62.822937 93.606003,62.626850 96.770416,62.719322 
	C94.295166,63.017048 91.536339,63.026211 88.310928,63.027199 
z"/>
<path fill="#F5A83E" opacity="1.000000" stroke="none" 
	d="
M142.847748,44.625473 
	C124.974342,44.965580 106.886452,44.920517 88.355171,44.692757 
	C87.911774,44.510059 87.950073,44.532513 87.934937,44.551003 
	C88.371758,44.371319 88.824295,43.998653 89.275581,44.000149 
	C107.061546,44.058998 124.847404,44.151867 142.847748,44.625473 
z"/>
<path fill="#FCDAAE" opacity="1.000000" stroke="none" 
	d="
M142.407928,29.067627 
	C142.898010,29.798573 142.935028,30.509548 142.925842,31.574165 
	C137.423782,31.927805 131.967926,31.927805 126.512054,31.927805 
	C126.512283,30.967754 126.512512,30.007706 126.512733,29.047655 
	C131.660110,29.047655 136.807495,29.047655 142.407928,29.067627 
z"/>
<path fill="#EFAC57" opacity="1.000000" stroke="none" 
	d="
M97.061584,38.965874 
	C101.543709,38.965855 105.539139,38.965855 109.534569,38.965855 
	C109.533432,39.456177 109.532295,39.946499 109.531158,40.436821 
	C102.547646,40.436821 95.564140,40.436821 88.580635,40.436821 
	C88.550896,39.946510 88.521164,39.456200 88.491425,38.965889 
	C91.185913,38.965889 93.880402,38.965889 97.061584,38.965874 
z"/>
<path fill="#EFAC55" opacity="1.000000" stroke="none" 
	d="
M142.499344,38.997635 
	C143.006317,39.452557 143.047684,39.891769 143.024796,40.657158 
	C136.073380,40.983330 129.186218,40.983330 122.299065,40.983330 
	C122.285172,40.316196 122.271271,39.649063 122.257370,38.981930 
	C128.849487,38.981930 135.441605,38.981930 142.499344,38.997635 
z"/>
<path fill="#EFA73F" opacity="1.000000" stroke="none" 
	d="
M89.737160,34.208267 
	C95.962990,34.150871 101.760178,34.150871 107.557358,34.150871 
	C107.553040,34.744099 107.548721,35.337322 107.544403,35.930550 
	C101.422066,35.930550 95.299736,35.930550 89.177399,35.930550 
	C89.221100,35.375587 89.264809,34.820629 89.737160,34.208267 
z"/>
<path fill="#EFA63E" opacity="1.000000" stroke="none" 
	d="
M142.213776,34.172302 
	C142.735474,34.327400 142.815033,34.474754 143.055725,34.815014 
	C136.952316,35.509754 130.687759,36.011585 124.423203,36.513412 
	C124.377731,35.730457 124.332260,34.947506 124.286789,34.164551 
	C130.115082,34.164551 135.943375,34.164551 142.213776,34.172302 
z"/>
<path fill="#FDB44D" opacity="1.000000" stroke="none" 
	d="
M142.929260,25.661865 
	C143.140869,26.133610 143.057648,26.278870 142.864899,26.650066 
	C138.373596,26.875999 133.991837,26.875999 129.610062,26.875999 
	C129.597900,26.362459 129.585724,25.848919 129.573547,25.335379 
	C133.927170,25.335379 138.280792,25.335379 142.929260,25.661865 
z"/>
<path fill="#FDB44B" opacity="1.000000" stroke="none" 
	d="
M94.117027,26.896969 
	C91.959190,26.896894 90.251495,26.896894 88.543800,26.896894 
	C88.537155,26.430325 88.530502,25.963755 88.523857,25.497185 
	C92.893806,25.497185 97.263748,25.497185 101.633698,25.497185 
	C101.677429,25.821478 101.721161,26.145773 101.764885,26.470066 
	C99.365646,26.612391 96.966408,26.754717 94.117027,26.896969 
z"/>
<path fill="#F9AF41" opacity="1.000000" stroke="none" 
	d="
M83.504982,35.693008 
	C84.016029,35.356899 84.404633,35.372299 85.343430,35.597778 
	C85.915871,36.442951 85.938110,37.078045 85.928055,37.942474 
	C85.585640,38.333088 85.275505,38.494377 84.468643,38.823883 
	C83.775459,38.009575 83.579002,37.027046 83.504982,35.693008 
z"/>
<path fill="#F6EFE6" opacity="1.000000" stroke="none" 
	d="
M144.007111,16.010918 
	C143.574219,16.145813 143.131439,16.267406 142.688675,16.389000 
	C142.958542,16.264137 143.228424,16.139273 143.735931,15.994133 
	C143.973587,15.973857 143.997238,15.997612 144.007111,16.010918 
z"/>
<path fill="#F5DBBB" opacity="1.000000" stroke="none" 
	d="
M88.588684,20.431255 
	C88.659554,20.527779 88.393547,20.570122 88.393547,20.570122 
	C88.393547,20.570122 88.517807,20.334732 88.588684,20.431255 
z"/>
</svg>