<svg version="1.1" id="Layer_1" xmlns="http://www.w3.org/2000/svg" xmlns:xlink="http://www.w3.org/1999/xlink" x="0px" y="0px"
	 width="100%" viewBox="0 0 157 94" enable-background="new 0 0 157 94" xml:space="preserve">
<path fill="#FF9901" opacity="1.000000" stroke="none" 
	d="
M116.000000,95.000000 
	C77.333344,95.000000 39.166683,95.000000 1.000021,95.000000 
	C1.000014,63.666683 1.000014,32.333366 1.000007,1.000037 
	C53.333302,1.000025 105.666603,1.000025 157.999939,1.000012 
	C157.999954,32.333298 157.999954,63.666595 157.999969,94.999947 
	C144.166672,95.000000 130.333328,95.000000 116.000000,95.000000 
M69.291542,57.405628 
	C69.154465,57.933910 69.017387,58.462193 68.835648,59.726501 
	C67.910759,60.524899 66.985863,61.323292 65.885490,61.309994 
	C58.825806,61.053627 51.766582,60.777344 44.704762,60.612743 
	C44.418343,60.606064 44.107361,61.653267 43.171345,62.635494 
	C42.407215,61.437447 41.643085,60.239399 41.249851,58.614178 
	C41.139793,56.680836 41.029736,54.747490 41.792286,52.494381 
	C43.732315,52.494381 45.672340,52.494381 48.090992,52.494381 
	C47.283752,58.003281 50.482838,58.345802 54.228024,58.039932 
	C55.383377,57.945576 56.563370,57.925381 57.714165,58.044418 
	C61.457027,58.431583 62.111076,56.375328 62.093830,53.186573 
	C62.076050,49.898575 61.594776,47.660450 57.509045,47.922153 
	C54.376736,48.122776 51.212429,47.823830 48.803215,47.422760 
	C54.225121,47.422760 59.647026,47.422760 65.068932,47.422760 
	C65.060318,46.986294 65.051712,46.549831 65.043098,46.113365 
	C58.289089,46.113365 51.535076,46.113365 44.185177,45.879997 
	C43.351181,44.686905 42.517181,43.493813 42.345364,42.081818 
	C43.395924,41.616901 44.446484,41.151981 45.497044,40.687065 
	C45.289631,40.371078 45.082218,40.055092 44.874802,39.739105 
	C43.792156,40.577599 42.709507,41.416096 41.197681,41.883373 
	C41.053116,41.151707 40.908554,40.420040 40.853981,38.923069 
	C40.626923,37.952950 40.399860,36.982830 40.058968,35.341095 
	C40.097332,34.890213 40.135700,34.439335 40.544888,33.538761 
	C40.678238,32.353668 40.811592,31.168575 40.940529,29.300844 
	C41.650459,27.913317 42.360386,26.525789 43.768761,24.785000 
	C49.877151,20.740164 56.410919,22.125380 62.389622,23.798393 
	C57.577621,24.370049 52.765617,24.941704 47.953617,25.513359 
	C51.086323,26.058929 54.220451,26.293175 57.299202,25.981113 
	C59.558998,25.752060 61.746208,24.806919 64.649857,24.098251 
	C66.087685,24.680977 67.525513,25.263702 68.824341,26.337566 
	C68.928383,26.759483 69.032433,27.181402 69.136482,27.603319 
	C69.525513,27.463747 69.914543,27.324173 70.303574,27.184599 
	C69.872055,26.456779 69.440529,25.728962 68.533752,24.495285 
	C61.781216,19.438976 48.535980,18.978668 42.261353,23.947863 
	C39.027355,27.724159 35.137299,30.360458 34.815544,36.753860 
	C34.581421,41.405960 33.766277,45.709156 36.571812,49.359337 
	C38.647781,52.060310 37.569252,54.109623 36.332855,55.910446 
	C32.606174,61.338364 33.542549,66.578499 39.289658,70.111198 
	C46.821297,74.740837 60.161488,72.707405 66.657127,65.772247 
	C73.276627,59.117554 73.840767,49.254791 67.794807,41.248775 
	C68.757446,39.670277 69.720085,38.091782 70.972961,36.037361 
	C67.927841,36.037361 65.224434,36.037361 62.614155,36.037361 
	C61.538288,30.645161 57.099888,28.480816 50.738533,30.527205 
	C46.132053,32.009071 48.583351,35.764706 48.589314,37.901421 
	C54.718197,39.352058 60.343300,40.683456 66.279243,42.614246 
	C67.271072,44.374794 68.262901,46.135342 68.751587,48.541161 
	C69.103683,51.073669 69.455772,53.606174 69.872887,56.727524 
	C69.843056,56.922733 69.813225,57.117939 69.291542,57.405628 
M123.319145,20.600590 
	C115.457886,18.559568 110.776848,22.551600 107.379379,28.993677 
	C106.375404,30.897358 105.445702,32.853180 104.270126,34.646225 
	C103.869431,35.257370 102.819496,35.442852 101.970383,35.121449 
	C99.332939,30.711411 96.695503,26.301373 93.672340,21.110096 
	C91.362534,21.069942 89.052727,20.997425 86.742912,20.996628 
	C82.435654,20.995138 78.584251,24.170797 78.532188,28.426128 
	C78.367119,41.917023 78.384010,55.412941 78.638954,68.901085 
	C78.660324,70.031776 80.815269,71.653435 82.277657,72.129547 
	C87.397629,73.796448 90.499237,70.093582 94.269005,67.062363 
	C94.451012,66.688446 94.633011,66.314537 94.965660,65.051926 
	C94.965660,63.115471 94.965660,61.179020 94.965660,59.728271 
	C99.831665,58.583752 104.107277,57.578098 108.787788,56.477211 
	C108.787788,60.328800 108.606331,64.605888 108.905602,68.849083 
	C108.988335,70.022232 110.397133,71.946701 111.376320,72.066635 
	C115.794884,72.607849 120.397606,72.966339 123.791542,67.713005 
	C124.221230,66.361351 125.014656,65.012260 125.024200,63.657639 
	C125.117310,50.447414 125.102928,37.236137 125.032043,24.025631 
	C125.026657,23.021032 124.356171,22.020002 123.319145,20.600590 
M53.555485,27.934624 
	C50.624249,27.934624 47.693016,27.934624 44.761780,27.934624 
	C44.768715,28.214254 44.775646,28.493887 44.782581,28.773518 
	C51.606640,28.773518 58.430698,28.773518 65.254761,28.773518 
	C65.263428,28.493782 65.272102,28.214045 65.280777,27.934309 
	C61.693718,27.934309 58.106667,27.934309 53.555485,27.934624 
M53.534554,42.967499 
	C50.950916,42.967499 48.367279,42.967499 45.783642,42.967499 
	C45.786846,43.231506 45.790054,43.495514 45.793259,43.759521 
	C51.263451,43.759521 56.733639,43.759521 62.203831,43.759521 
	C62.211029,43.495445 62.218227,43.231369 62.225430,42.967293 
	C59.637436,42.967293 57.049446,42.967293 53.534554,42.967499 
M65.444504,34.457676 
	C66.104965,34.556618 66.765434,34.655563 67.425896,34.754505 
	C67.431084,34.553871 67.436264,34.353237 67.441444,34.152603 
	C66.865723,34.152603 66.290009,34.152603 65.444504,34.457676 
M44.909786,34.955261 
	C45.050518,34.902031 45.217731,34.879108 45.323917,34.786339 
	C45.415039,34.706738 45.436375,34.547253 45.488567,34.423100 
	C44.820000,34.415958 44.151432,34.408821 43.482864,34.401680 
	C43.814911,34.596508 44.146961,34.791336 44.909786,34.955261 
M44.647766,37.535595 
	C44.237846,37.469696 43.827923,37.403797 43.418003,37.337902 
	C43.758484,37.488155 44.098961,37.638409 44.647766,37.535595 
M70.687828,29.186926 
	C70.502151,29.363035 70.316467,29.539143 70.130783,29.715250 
	C70.508598,29.827997 70.886406,29.940746 71.264221,30.053495 
	C71.192184,29.799175 71.120148,29.544855 70.687828,29.186926 
z"/>
<path fill="#FEF9F1" opacity="1.000000" stroke="none" 
	d="
M48.062351,47.747070 
	C51.212429,47.823830 54.376736,48.122776 57.509045,47.922153 
	C61.594776,47.660450 62.076050,49.898575 62.093830,53.186573 
	C62.111076,56.375328 61.457027,58.431583 57.714165,58.044418 
	C56.563370,57.925381 55.383377,57.945576 54.228024,58.039932 
	C50.482838,58.345802 47.283752,58.003281 48.090992,52.494381 
	C45.672340,52.494381 43.732315,52.494381 41.026352,52.853630 
	C40.466599,55.155704 40.672775,57.098530 40.878952,59.041351 
	C41.643085,60.239399 42.407215,61.437447 43.539753,62.388317 
	C43.908161,62.141140 43.838123,62.041996 43.550549,62.347214 
	C44.842266,63.439842 46.421558,64.227249 48.468933,65.007355 
	C54.292545,65.000443 59.648083,65.000832 65.192276,65.154419 
	C65.622955,65.525482 65.836403,65.768456 66.021278,66.036530 
	C60.161488,72.707405 46.821297,74.740837 39.289658,70.111198 
	C33.542549,66.578499 32.606174,61.338364 36.332855,55.910446 
	C37.569252,54.109623 38.647781,52.060310 36.571812,49.359337 
	C33.766277,45.709156 34.581421,41.405960 34.815544,36.753860 
	C35.137299,30.360458 39.027355,27.724159 42.612999,24.159153 
	C42.999870,24.626385 43.035095,24.882324 43.070316,25.138262 
	C42.360386,26.525789 41.650459,27.913317 40.721581,29.916904 
	C40.393108,31.684793 40.283588,32.836624 40.174068,33.988453 
	C40.135700,34.439335 40.097332,34.890213 40.046829,36.056198 
	C40.277794,37.743656 40.520893,38.716015 40.763992,39.688374 
	C40.908554,40.420040 41.053116,41.151707 41.478691,42.017933 
	C41.759697,42.152493 41.683186,42.300720 41.683186,42.300720 
	C42.517181,43.493813 43.351181,44.686905 44.642899,46.274422 
	C46.087868,47.028259 47.075108,47.387669 48.062351,47.747070 
z"/>
<path fill="#FEFBF5" opacity="1.000000" stroke="none" 
	d="
M123.073456,68.096245 
	C120.397606,72.966339 115.794884,72.607849 111.376320,72.066635 
	C110.397133,71.946701 108.988335,70.022232 108.905602,68.849083 
	C108.606331,64.605888 108.787788,60.328800 108.787788,56.477211 
	C104.107277,57.578098 99.831665,58.583752 94.965660,59.728271 
	C94.965660,61.179020 94.965660,63.115471 94.578995,65.493378 
	C93.777687,65.952957 93.363029,65.971085 93.060837,65.533249 
	C93.197502,60.084396 93.110130,55.086891 93.316505,50.101543 
	C93.375465,48.677235 94.286003,47.288177 94.806046,45.882954 
	C95.840637,46.813606 97.158371,47.568993 97.861473,48.704845 
	C101.140846,54.002651 107.286964,53.997578 110.606995,48.689911 
	C111.389069,47.439621 112.712296,46.527824 113.786575,45.460312 
	C114.195618,45.708389 114.604652,45.956467 115.013687,46.204548 
	C115.013687,48.663578 114.907433,51.128231 115.037331,53.580383 
	C115.260590,57.794922 115.631126,62.001652 116.270340,66.392204 
	C118.758377,67.080582 120.915916,67.588409 123.073456,68.096245 
z"/>
<path fill="#FFFCF8" opacity="1.000000" stroke="none" 
	d="
M93.839699,67.210396 
	C90.499237,70.093582 87.397629,73.796448 82.277657,72.129547 
	C80.815269,71.653435 78.660324,70.031776 78.638954,68.901085 
	C78.384010,55.412941 78.367119,41.917023 78.532188,28.426128 
	C78.584251,24.170797 82.435654,20.995138 86.742912,20.996628 
	C89.052727,20.997425 91.362534,21.069942 93.836349,21.808537 
	C93.989227,22.712791 93.978111,22.918606 93.563187,23.097031 
	C90.619820,23.279072 88.080261,23.488501 85.186661,23.727123 
	C85.105156,24.479401 84.970001,25.726780 84.537712,27.096659 
	C83.120300,27.834541 82.000038,28.449924 80.514915,29.288231 
	C80.096237,33.644993 79.905266,37.782806 80.024918,41.911617 
	C80.160385,46.586132 80.574455,51.252579 81.230896,55.777538 
	C83.845657,50.317200 84.142242,45.050171 81.158501,39.592197 
	C81.142860,39.140663 81.173332,38.960014 81.547462,38.633533 
	C82.873116,36.667595 83.855118,34.847492 84.890091,33.491653 
	C84.951897,43.189667 84.917221,52.423870 85.012665,61.656727 
	C85.028465,63.184711 85.613304,64.706810 86.318787,66.417427 
	C89.081497,66.805618 91.460602,67.008011 93.839699,67.210396 
z"/>
<path fill="#FFF6EA" opacity="1.000000" stroke="none" 
	d="
M65.968407,42.014854 
	C60.343300,40.683456 54.718197,39.352058 48.589314,37.901421 
	C48.583351,35.764706 46.132053,32.009071 50.738533,30.527205 
	C57.099888,28.480816 61.538288,30.645161 62.614155,36.037361 
	C65.224434,36.037361 67.927841,36.037361 70.972961,36.037361 
	C69.720085,38.091782 68.757446,39.670277 67.564453,41.620255 
	C66.878868,41.999439 66.423637,42.007149 65.968407,42.014854 
z"/>
<path fill="#FDF5E8" opacity="1.000000" stroke="none" 
	d="
M102.066208,35.822830 
	C102.819496,35.442852 103.869431,35.257370 104.270126,34.646225 
	C105.445702,32.853180 106.375404,30.897358 107.379379,28.993677 
	C110.776848,22.551600 115.457886,18.559568 123.552216,21.071724 
	C123.520927,22.042814 123.256561,22.542770 122.601845,23.040028 
	C119.768440,23.234825 117.325394,23.432322 114.549316,23.656742 
	C111.431969,29.338474 108.153999,35.312954 104.356079,42.235092 
	C103.141304,40.201645 102.529091,39.176834 101.944771,37.763962 
	C102.003853,36.858212 102.035034,36.340519 102.066208,35.822830 
z"/>
<path fill="#F9E2C0" opacity="1.000000" stroke="none" 
	d="
M122.992203,23.042725 
	C123.256561,22.542770 123.520927,22.042814 123.890076,21.280087 
	C124.356171,22.020002 125.026657,23.021032 125.032043,24.025631 
	C125.102928,37.236137 125.117310,50.447414 125.024200,63.657639 
	C125.014656,65.012260 124.221230,66.361351 123.432495,67.904625 
	C120.915916,67.588409 118.758377,67.080582 116.717445,66.311646 
	C118.775810,65.959526 120.717567,65.868507 122.992195,65.761894 
	C122.992195,51.270947 122.992195,37.156834 122.992203,23.042725 
z"/>
<path fill="#FEF1DC" opacity="1.000000" stroke="none" 
	d="
M43.419540,24.961632 
	C43.035095,24.882324 42.999870,24.626385 42.910698,23.986691 
	C48.535980,18.978668 61.781216,19.438976 68.703201,24.956469 
	C68.872650,25.417652 68.963341,25.846426 68.963341,25.846426 
	C67.525513,25.263702 66.087685,24.680977 64.211113,23.909344 
	C63.583675,23.394581 63.301868,23.249168 62.926952,23.284201 
	C56.410919,22.125380 49.877151,20.740164 43.419540,24.961632 
z"/>
<path fill="#FEEACD" opacity="1.000000" stroke="none" 
	d="
M66.123825,42.314552 
	C66.423637,42.007149 66.878868,41.999439 67.675591,41.994209 
	C73.840767,49.254791 73.276627,59.117554 66.339203,65.904388 
	C65.836403,65.768456 65.622955,65.525482 65.280060,64.949677 
	C65.179192,64.591743 65.311058,64.166161 65.648117,63.964722 
	C66.021362,63.177364 66.057556,62.591442 66.055428,62.026062 
	C66.017105,62.046597 66.060966,62.121685 66.060966,62.121689 
	C66.985863,61.323292 67.910759,60.524899 69.065002,59.108234 
	C69.457367,58.097694 69.620384,57.705418 69.783401,57.313145 
	C69.813225,57.117939 69.843056,56.922733 69.913239,56.120922 
	C69.913132,54.664185 69.872665,53.814045 69.872681,52.733711 
	C69.913162,52.503510 69.831337,52.043262 69.892380,51.697426 
	C69.906105,50.887856 69.858788,50.424129 69.843292,49.733330 
	C69.875099,49.506256 69.784866,49.056641 69.814545,48.821182 
	C69.789215,48.234867 69.592720,48.004925 69.254723,47.895889 
	C68.262901,46.135342 67.271072,44.374794 66.123825,42.314552 
z"/>
<path fill="#FFD594" opacity="1.000000" stroke="none" 
	d="
M43.857994,62.175297 
	C44.107361,61.653267 44.418343,60.606064 44.704762,60.612743 
	C51.766582,60.777344 58.825806,61.053627 65.973228,61.715839 
	C66.060966,62.121685 66.017105,62.046597 65.581436,62.054138 
	C58.043221,62.055115 50.940670,62.048553 43.838123,62.041996 
	C43.838123,62.041996 43.908161,62.141140 43.857994,62.175297 
z"/>
<path fill="#FEEDD2" opacity="1.000000" stroke="none" 
	d="
M102.018295,35.472137 
	C102.035034,36.340519 102.003853,36.858212 101.677414,37.542187 
	C98.910446,32.847122 96.438721,27.985769 93.967003,23.124418 
	C93.978111,22.918606 93.989227,22.712791 94.029205,22.199158 
	C96.695503,26.301373 99.332939,30.711411 102.018295,35.472137 
z"/>
<path fill="#FDA110" opacity="1.000000" stroke="none" 
	d="
M54.037548,27.934467 
	C58.106667,27.934309 61.693718,27.934309 65.280777,27.934309 
	C65.272102,28.214045 65.263428,28.493782 65.254761,28.773518 
	C58.430698,28.773518 51.606640,28.773518 44.782581,28.773518 
	C44.775646,28.493887 44.768715,28.214254 44.761780,27.934624 
	C47.693016,27.934624 50.624249,27.934624 54.037548,27.934467 
z"/>
<path fill="#FDA110" opacity="1.000000" stroke="none" 
	d="
M48.432785,47.584915 
	C47.075108,47.387669 46.087868,47.028259 44.940842,46.391106 
	C51.535076,46.113365 58.289089,46.113365 65.043098,46.113365 
	C65.051712,46.549831 65.060318,46.986294 65.068932,47.422760 
	C59.647026,47.422760 54.225121,47.422760 48.432785,47.584915 
z"/>
<path fill="#FFA512" opacity="1.000000" stroke="none" 
	d="
M62.658287,23.541298 
	C63.301868,23.249168 63.583675,23.394581 63.869068,23.950676 
	C61.746208,24.806919 59.558998,25.752060 57.299202,25.981113 
	C54.220451,26.293175 51.086323,26.058929 47.953617,25.513359 
	C52.765617,24.941704 57.577621,24.370049 62.658287,23.541298 
z"/>
<path fill="#FDA110" opacity="1.000000" stroke="none" 
	d="
M53.998005,42.967396 
	C57.049446,42.967293 59.637436,42.967293 62.225430,42.967293 
	C62.218227,43.231369 62.211029,43.495445 62.203831,43.759521 
	C56.733639,43.759521 51.263451,43.759521 45.793259,43.759521 
	C45.790054,43.495514 45.786846,43.231506 45.783642,42.967499 
	C48.367279,42.967499 50.950916,42.967499 53.998005,42.967396 
z"/>
<path fill="#FDA110" opacity="1.000000" stroke="none" 
	d="
M69.003159,48.218525 
	C69.592720,48.004925 69.789215,48.234867 69.748566,48.928665 
	C69.569237,49.524868 69.622093,49.754467 69.811478,49.960400 
	C69.858788,50.424129 69.906105,50.887856 69.821838,51.805252 
	C69.595299,52.514656 69.642616,52.749649 69.832199,52.963909 
	C69.872665,53.814045 69.913132,54.664185 69.880730,55.826500 
	C69.455772,53.606174 69.103683,51.073669 69.003159,48.218525 
z"/>
<path fill="#FDA110" opacity="1.000000" stroke="none" 
	d="
M41.064400,58.827766 
	C40.672775,57.098530 40.466599,55.155704 40.590050,53.013515 
	C41.029736,54.747490 41.139793,56.680836 41.064400,58.827766 
z"/>
<path fill="#FDE4BD" opacity="1.000000" stroke="none" 
	d="
M94.054352,67.136383 
	C91.460602,67.008011 89.081497,66.805618 86.749863,66.327339 
	C88.847679,66.030708 90.898026,66.009956 92.948380,65.989204 
	C93.363029,65.971085 93.777687,65.952957 94.503677,65.937729 
	C94.633011,66.314537 94.451012,66.688446 94.054352,67.136383 
z"/>
<path fill="#FDA110" opacity="1.000000" stroke="none" 
	d="
M41.693275,42.203541 
	C42.709507,41.416096 43.792156,40.577599 44.874802,39.739105 
	C45.082218,40.055092 45.289631,40.371078 45.497044,40.687065 
	C44.446484,41.151981 43.395924,41.616901 42.014275,42.191269 
	C41.683186,42.300720 41.759697,42.152493 41.693275,42.203541 
z"/>
<path fill="#FDA110" opacity="1.000000" stroke="none" 
	d="
M40.359478,33.763607 
	C40.283588,32.836624 40.393108,31.684793 40.723785,30.258224 
	C40.811592,31.168575 40.678238,32.353668 40.359478,33.763607 
z"/>
<path fill="#FDA110" opacity="1.000000" stroke="none" 
	d="
M68.893845,26.091995 
	C68.963341,25.846426 68.872650,25.417652 68.940826,25.209396 
	C69.440529,25.728962 69.872055,26.456779 70.303574,27.184599 
	C69.914543,27.324173 69.525513,27.463747 69.136482,27.603319 
	C69.032433,27.181402 68.928383,26.759483 68.893845,26.091995 
z"/>
<path fill="#FDA110" opacity="1.000000" stroke="none" 
	d="
M65.579391,34.305138 
	C66.290009,34.152603 66.865723,34.152603 67.441444,34.152603 
	C67.436264,34.353237 67.431084,34.553871 67.425896,34.754505 
	C66.765434,34.655563 66.104965,34.556618 65.579391,34.305138 
z"/>
<path fill="#FDA110" opacity="1.000000" stroke="none" 
	d="
M44.694397,34.970711 
	C44.146961,34.791336 43.814911,34.596508 43.482864,34.401680 
	C44.151432,34.408821 44.820000,34.415958 45.488567,34.423096 
	C45.436375,34.547253 45.415039,34.706738 45.323917,34.786339 
	C45.217731,34.879108 45.050518,34.902031 44.694397,34.970711 
z"/>
<path fill="#FDA110" opacity="1.000000" stroke="none" 
	d="
M44.543602,37.662132 
	C44.098961,37.638409 43.758484,37.488155 43.418003,37.337898 
	C43.827923,37.403797 44.237846,37.469696 44.543602,37.662132 
z"/>
<path fill="#FDA110" opacity="1.000000" stroke="none" 
	d="
M70.867966,29.238731 
	C71.120148,29.544855 71.192184,29.799175 71.264221,30.053495 
	C70.886406,29.940746 70.508598,29.827997 70.130783,29.715252 
	C70.316467,29.539143 70.502151,29.363035 70.867966,29.238731 
z"/>
<path fill="#FDA110" opacity="1.000000" stroke="none" 
	d="
M40.808987,39.305721 
	C40.520893,38.716015 40.277794,37.743656 40.103745,36.392006 
	C40.399860,36.982830 40.626923,37.952950 40.808987,39.305721 
z"/>
<path fill="#FDA110" opacity="1.000000" stroke="none" 
	d="
M69.537476,57.359386 
	C69.620384,57.705418 69.457367,58.097694 69.087326,58.740219 
	C69.017387,58.462193 69.154465,57.933910 69.537476,57.359386 
z"/>
<path fill="#FDA110" opacity="1.000000" stroke="none" 
	d="
M65.311058,64.166153 
	C65.311058,64.166161 65.179192,64.591743 65.091400,64.796478 
	C59.648083,65.000832 54.292545,65.000443 48.621803,64.645081 
	C53.974747,64.248795 59.642902,64.207474 65.311058,64.166153 
z"/>
<path fill="#FF9901" opacity="1.000000" stroke="none" 
	d="
M65.648117,63.964718 
	C59.642902,64.207474 53.974747,64.248795 48.153721,64.652382 
	C46.421558,64.227249 44.842266,63.439842 43.550549,62.347214 
	C50.940670,62.048553 58.043221,62.055115 65.619759,62.033600 
	C66.057556,62.591442 66.021362,63.177364 65.648117,63.964718 
z"/>
<path fill="#FD9B05" opacity="1.000000" stroke="none" 
	d="
M93.060837,65.533249 
	C90.898026,66.009956 88.847679,66.030708 86.366257,66.141541 
	C85.613304,64.706810 85.028465,63.184711 85.012665,61.656727 
	C84.917221,52.423870 84.951897,43.189667 84.968231,33.064354 
	C84.940552,30.439919 84.887703,28.707041 84.834854,26.974161 
	C84.970001,25.726780 85.105156,24.479401 85.186661,23.727123 
	C88.080261,23.488501 90.619820,23.279072 93.563187,23.097031 
	C96.438721,27.985769 98.910446,32.847122 101.649521,37.930252 
	C102.529091,39.176834 103.141304,40.201645 104.356079,42.235092 
	C108.153999,35.312954 111.431969,29.338474 114.549316,23.656742 
	C117.325394,23.432322 119.768440,23.234825 122.601837,23.040026 
	C122.992195,37.156834 122.992195,51.270947 122.992195,65.761894 
	C120.717567,65.868507 118.775810,65.959526 116.386948,66.131104 
	C115.631126,62.001652 115.260590,57.794922 115.037331,53.580383 
	C114.907433,51.128231 115.013687,48.663578 115.013687,46.204548 
	C114.604652,45.956467 114.195618,45.708389 113.786575,45.460312 
	C112.712296,46.527824 111.389069,47.439621 110.606995,48.689911 
	C107.286964,53.997578 101.140846,54.002651 97.861473,48.704845 
	C97.158371,47.568993 95.840637,46.813606 94.806046,45.882954 
	C94.286003,47.288177 93.375465,48.677235 93.316505,50.101543 
	C93.110130,55.086891 93.197502,60.084396 93.060837,65.533249 
M91.839279,43.123375 
	C101.553970,43.123375 111.268661,43.123375 120.983345,43.123375 
	C120.978981,42.853756 120.974617,42.584137 120.970253,42.314518 
	C109.675591,42.314518 98.380928,42.314518 87.086266,42.314518 
	C87.080841,42.498901 87.075417,42.683289 87.069992,42.867672 
	C88.362648,42.952816 89.655296,43.037964 91.839279,43.123375 
z"/>
<path fill="#FDEED9" opacity="1.000000" stroke="none" 
	d="
M81.204605,39.863087 
	C84.142242,45.050171 83.845657,50.317200 81.280128,55.319229 
	C81.045441,49.958302 81.125023,44.910694 81.204605,39.863087 
z"/>
<path fill="#FDEED9" opacity="1.000000" stroke="none" 
	d="
M84.537712,27.096659 
	C84.887703,28.707041 84.940552,30.439919 84.915260,32.600094 
	C83.855118,34.847492 82.873116,36.667595 81.461197,38.262543 
	C80.980774,35.046692 80.930267,32.056000 80.879761,29.065308 
	C82.000038,28.449924 83.120300,27.834541 84.537712,27.096659 
z"/>
<path fill="#FF9D00" opacity="1.000000" stroke="none" 
	d="
M80.514908,29.288231 
	C80.930267,32.056000 80.980774,35.046692 81.117538,38.408379 
	C81.173332,38.960014 81.142860,39.140663 81.158493,39.592197 
	C81.125023,44.910694 81.045441,49.958302 80.916626,55.464218 
	C80.574455,51.252579 80.160385,46.586132 80.024918,41.911617 
	C79.905266,37.782806 80.096237,33.644993 80.514908,29.288231 
z"/>
<path fill="#FF9901" opacity="1.000000" stroke="none" 
	d="
M69.843292,49.733330 
	C69.622093,49.754467 69.569237,49.524868 69.718887,49.164124 
	C69.784866,49.056641 69.875099,49.506256 69.843292,49.733330 
z"/>
<path fill="#FF9901" opacity="1.000000" stroke="none" 
	d="
M69.872681,52.733711 
	C69.642616,52.749649 69.595299,52.514656 69.760803,52.151093 
	C69.831337,52.043262 69.913162,52.503510 69.872681,52.733711 
z"/>
<path fill="#F6D6A7" opacity="1.000000" stroke="none" 
	d="
M91.393616,43.123241 
	C89.655296,43.037964 88.362648,42.952816 87.069992,42.867672 
	C87.075417,42.683289 87.080841,42.498901 87.086266,42.314518 
	C98.380928,42.314518 109.675591,42.314518 120.970253,42.314518 
	C120.974617,42.584137 120.978981,42.853756 120.983345,43.123375 
	C111.268661,43.123375 101.553970,43.123375 91.393616,43.123241 
z"/>
</svg>